<svg width="12" height="12" viewBox="0 0 12 12" fill="none" xmlns="http://www.w3.org/2000/svg">
<path d="M1 10.5C0.999999 9.80404 1.18158 9.12011 1.52681 8.51581C1.87204 7.91151 2.36897 7.40774 2.9685 7.05427C3.56802 6.70081 4.24939 6.50989 4.94529 6.50037C5.64119 6.49085 6.32753 6.66307 6.9365 7M8.5 8.5L11 11M11 8.5L8.5 11M7.5 4C7.5 5.38071 6.38071 6.5 5 6.5C3.61929 6.5 2.5 5.38071 2.5 4C2.5 2.61929 3.61929 1.5 5 1.5C6.38071 1.5 7.5 2.61929 7.5 4Z" stroke="#9476F3" stroke-linecap="round" stroke-linejoin="round"/>
</svg>
