<svg width="1728" height="1267" viewBox="0 0 1728 1267" fill="none" xmlns="http://www.w3.org/2000/svg">
<g filter="url(#filter0_f_412_49)">
<path d="M-207 468.154C-191.82 468.002 -176.64 467.849 -90.6902 462.016C-4.74029 456.182 151.52 444.672 254.063 439.137C356.605 433.601 400.696 434.389 441.147 437.05C481.599 439.71 517.074 444.22 549.849 450.821C582.624 457.423 611.623 465.979 639.35 477.092C667.077 488.205 692.652 501.616 754.007 546.738C815.362 591.861 911.722 668.289 972.169 713.711C1032.62 759.133 1108.59 831.49 1187.15 831.993C1265.71 832.495 1359.38 806.107 1457.71 794.681C1556.04 783.256 1578.7 731.766 1640.79 717.905C1702.88 704.043 1731.57 692.031 1747.26 684.502C1763.09 676.91 1776.54 666.281 1805.53 637.332C1827.61 613.745 1864.67 572.095 1888.64 542.754C1912.62 513.413 1922.38 497.642 1934 479.664" stroke="#6135ED" stroke-width="270" stroke-linecap="round"/>
</g>
<defs>
<filter id="filter0_f_412_49" x="-642" y="0" width="3011.02" height="1267" filterUnits="userSpaceOnUse" color-interpolation-filters="sRGB">
<feFlood flood-opacity="0" result="BackgroundImageFix"/>
<feBlend mode="normal" in="SourceGraphic" in2="BackgroundImageFix" result="shape"/>
<feGaussianBlur stdDeviation="150" result="effect1_foregroundBlur_412_49"/>
</filter>
</defs>
</svg>
