<svg width="196" height="196" viewBox="0 0 196 196" fill="none" xmlns="http://www.w3.org/2000/svg">
<g clip-path="url(#clip0_3_15)">
<g clip-path="url(#clip1_3_15)">
<g clip-path="url(#clip2_3_15)">
<path fill-rule="evenodd" clip-rule="evenodd" d="M44.2577 0.765625H151.742C176.084 0.765625 196 20.6818 196 45.0233V151.604C196 175.946 176.084 195.862 151.742 195.862H44.2577C19.9162 195.862 0 175.946 0 151.604V45.0233C0 20.6818 19.9162 0.765625 44.2577 0.765625Z" fill="white"/>
<path d="M157.733 85.6597C158.911 82.1204 159.512 78.4146 159.512 74.6844C159.512 68.5121 157.868 62.4512 154.749 57.1248C148.482 46.2162 136.857 39.4814 124.275 39.4814C121.8 39.4814 119.32 39.7429 116.901 40.2623C113.641 36.5894 109.639 33.6492 105.16 31.6357C100.681 29.6221 95.8258 28.581 90.9149 28.5808H90.6944C90.6718 28.5816 90.6374 28.5816 90.6117 28.5816C75.3731 28.5816 61.8594 38.4145 57.1746 52.9108C47.3646 54.9164 38.896 61.0686 33.9447 69.7661C30.8356 75.1247 29.1972 81.2096 29.1952 87.4049C29.1964 96.1116 32.4285 104.508 38.2655 110.968C37.0873 114.507 36.4864 118.213 36.4859 121.943C36.4864 128.116 38.1303 134.176 41.2488 139.503C47.5151 150.415 59.1415 157.146 71.7245 157.146C74.2019 157.146 76.6724 156.884 79.0948 156.365C82.3552 160.038 86.357 162.978 90.8366 164.991C95.3161 167.005 100.172 168.046 105.083 168.047H105.303L105.393 168.046C120.64 168.046 134.149 158.213 138.834 143.704C148.644 141.697 157.113 135.546 162.064 126.848C165.17 121.494 166.805 115.414 166.804 109.225C166.803 100.518 163.571 92.1218 157.734 85.6616L157.733 85.6597ZM105.312 158.929H105.276C99.1755 158.927 93.2681 156.787 88.5817 152.88C88.86 152.731 89.1351 152.575 89.4066 152.413L117.176 136.373C117.869 135.978 118.445 135.407 118.846 134.718C119.247 134.029 119.458 133.246 119.458 132.449V93.2727L131.196 100.05C131.32 100.112 131.406 100.233 131.424 100.372V132.793C131.408 147.207 119.728 158.9 105.312 158.929ZM49.1581 134.946C46.8644 130.98 45.656 126.479 45.6546 121.898C45.6546 120.403 45.7851 118.905 46.0393 117.433C46.2457 117.557 46.6059 117.777 46.8643 117.925L74.6335 133.965C75.326 134.369 76.1133 134.581 76.9148 134.581C77.7163 134.581 78.5035 134.368 79.1959 133.964L113.099 114.389V127.943C113.103 128.012 113.089 128.081 113.06 128.144C113.031 128.207 112.987 128.262 112.931 128.303L84.8596 144.511C80.8873 146.797 76.3849 148.001 71.8018 148.002C67.2142 148.002 62.7073 146.795 58.7331 144.503C54.7589 142.211 51.457 138.915 49.1585 134.944L49.1581 134.946ZM41.8529 74.3238C44.9026 69.0262 49.7184 64.9698 55.4573 62.8647C55.4573 63.104 55.4435 63.5274 55.4435 63.8218V95.9018L55.4431 95.9286C55.4433 96.7252 55.6542 97.5075 56.0545 98.1961C56.4549 98.8847 57.0303 99.4551 57.7224 99.8494L91.6258 119.423L79.8884 126.2C79.8305 126.238 79.764 126.261 79.6949 126.268C79.6259 126.274 79.5563 126.263 79.4925 126.236L51.4182 110.014C47.4494 107.715 44.1545 104.413 41.8637 100.439C39.573 96.4657 38.3669 91.9598 38.3662 87.3732C38.3681 82.7936 39.5708 78.2946 41.8544 74.325L41.8529 74.3238ZM138.286 96.7647L104.383 77.1888L116.12 70.4142C116.178 70.376 116.245 70.3527 116.314 70.3464C116.383 70.3401 116.452 70.351 116.516 70.3782L144.591 86.5861C152.671 91.2545 157.657 99.8873 157.657 109.223C157.657 120.173 150.824 129.971 140.55 133.752V100.713C140.552 100.7 140.552 100.688 140.552 100.676C140.552 99.0608 139.686 97.5678 138.286 96.7647ZM149.969 79.1821C149.762 79.0554 149.402 78.8384 149.144 78.6898L121.375 62.6496C120.682 62.246 119.895 62.0332 119.094 62.0329C118.293 62.0329 117.505 62.2465 116.813 62.6496L82.9099 82.2255V68.6708L82.9095 68.6475C82.9095 68.5821 82.9247 68.5176 82.954 68.4592C82.9832 68.4007 83.0257 68.3498 83.078 68.3106L111.15 52.1165C115.12 49.8273 119.623 48.6221 124.207 48.6218C138.64 48.6218 150.345 60.3271 150.345 74.7606C150.345 76.2418 150.219 77.7202 149.969 79.1802V79.1821ZM76.5288 103.341L64.7887 96.5637C64.7271 96.5331 64.6741 96.4877 64.6343 96.4316C64.5945 96.3755 64.5691 96.3104 64.5606 96.2422V63.821C64.5667 49.3947 76.2719 37.6994 90.6994 37.6994C96.8098 37.7008 102.727 39.8412 107.424 43.7494C107.146 43.8999 106.871 44.0559 106.599 44.2172L78.8299 60.257C78.1371 60.6513 77.561 61.2219 77.1602 61.911C76.7593 62.6 76.5481 63.3829 76.548 64.1801V64.2061L76.5288 103.341ZM82.9046 89.5942L98.0046 80.873L113.104 89.5885V107.026L98.0046 115.741L82.9046 107.026V89.5942Z" fill="black"/>
</g>
</g>
</g>
<defs>
<clipPath id="clip0_3_15">
<rect width="196" height="196" fill="white"/>
</clipPath>
<clipPath id="clip1_3_15">
<rect width="196" height="196" fill="white"/>
</clipPath>
<clipPath id="clip2_3_15">
<rect width="196" height="195.096" fill="white" transform="translate(0 0.765625)"/>
</clipPath>
</defs>
</svg>
